<mxfile host="app.diagrams.net" modified="2023-09-01T02:14:32.060Z" agent="Mozilla/5.0 (Windows NT 10.0; Win64; x64) AppleWebKit/537.36 (KHTML, like Gecko) Chrome/116.0.0.0 Safari/537.36" version="21.7.1" etag="fy_HMJQFymXtq5w5TusC" type="github">
  <diagram name="第 1 页" id="fRr_aXFDMkgrXgwy1JBU">
    <mxGraphModel>
      <root>
        <mxCell id="0" />
        <mxCell id="1" parent="0" />
      </root>
    </mxGraphModel>
  </diagram>
</mxfile>
